{"title":"Godzilla 2000 (1999)","uid":5630737,"size":1826590000,"categoryP":"video","categoryS":"movies","magnet":"?xt=urn:btih:100a5d5076e356652faec0b45e290f9cdd24ad3e&amp;dn=Godzilla+2000+%281999%29&amp;tr=udp%3A%2F%2Ftracker.openbittorrent.com%3A80&amp;tr=udp%3A%2F%2Fopen.demonii.com%3A1337&amp;tr=udp%3A%2F%2Ftracker.coppersurfer.tk%3A6969&amp;tr=udp%3A%2F%2Fexodus.desync.com%3A6969","seeders":1,"leechers":0,"uploader":"Beebe85","files":-1,"time":1276666815,"description":"Godzilla 2000 (1999)Toho, DVDRip\n &lt;a href=&quot;\nhttp://www.imdb.com/title/tt0188640/&quot; rel=&quot;nofollow&quot; target=&quot;_NEW&quot;&gt;\nhttp://www.imdb.com/title/tt0188640/&lt;/a&gt;\n\n\n\nGeneral\nComplete name                    : Godzilla 2000 (1999)DVD_VIDEO.Title1.avi\nFormat                           : AVI\nFormat/Info                      : Audio Video Interleave\nFile size                        : 1.70 GiB\nDuration                         : 1h 38mn\nOverall bit rate                 : 2459 Kbps\nMovie name                       : DVD_VIDEO.Title1.DVDRip\nWriting application              : Lavf52.33.0\nOriginal source form/Name        : DVD_VIDEO\n\nVideo\nID                               : 0\nFormat                           : MPEG-4 Visual\nFormat profile                   : Simple@L3\nFormat settings, BVOP            : No\nFormat settings, QPel            : No\nFormat settings, GMC             : No warppoints\nFormat settings, Matrix          : Default (H.263)\nCodec ID                         : XVID\nCodec ID/Hint                    : XviD\nDuration                         : 1h 38mn\nBit rate                         : 2000 Kbps\nWidth                            : 800 pixels\nHeight                           : 340 pixels\nDisplay aspect ratio             : 2.35:1\nFrame rate                       : 23.976 fps\nResolution                       : 24 bits\nColorimetry                      : 4:2:0\nScan type                        : Progressive\nBits/(Pixel*Frame)               : 0.307\nStream size                      : 1.38 GiB (81%)\nWriting library                  : XviD 1.2.1 (UTC 2008-12-04)\n\nAudio\nID                               : 1\nFormat                           : AC-3\nFormat/Info                      : Audio Coding 3\nCodec ID                         : 2000\nDuration                         : 1h 38mn\nBit rate mode                    : Constant\nBit rate                         : 448 Kbps\nChannel(s)                       : 6 channels\nChannel positions                : Front: L C R, Surround: L R, LFE\nSampling rate                    : 48.0 KHz\nStream size                      : 317 MiB (18%)\nAlignment                        : Aligned on interleaves\nInterleave, duration             : 32 ms (0.77 video frame)\nInterleave, preload duration     : 32 ms\n\n\n\n\n","torrent":{"xt":"urn:btih:100a5d5076e356652faec0b45e290f9cdd24ad3e","amp;dn":"Godzilla+2000+%281999%29","amp;tr":["udp%3A%2F%2Ftracker.openbittorrent.com%3A80","udp%3A%2F%2Fopen.demonii.com%3A1337","udp%3A%2F%2Ftracker.coppersurfer.tk%3A6969","udp%3A%2F%2Fexodus.desync.com%3A6969"],"infoHash":"100a5d5076e356652faec0b45e290f9cdd24ad3e","infoHashBuffer":{"type":"Buffer","data":[16,10,93,80,118,227,86,101,47,174,192,180,94,41,15,156,221,36,173,62]},"announce":[],"urlList":[]}}